<svg xmlns="http://www.w3.org/2000/svg" viewBox="0 0 100 100">
  <rect width="100" height="100" rx="20" fill="#dc2626"/>
  <path d="M71.4 34.3c-4.9-2.3-10.4-3.5-16.1-3.5-2 0-3.9.2-5.7.4v42.2c1.9-.4 3.9-.6 5.9-.6 6 0 11.7 1.4 16.8 3.9 1 .5 2.1-.2 2.1-1.3V35.7c0-.8-.7-1.3-1.4-.9-.5.2-1.1.4-1.6.5zm-42.8 0c-4.9-2.3-10.4-3.5-16.1-3.5-2 0-3.9.2-5.7.4v42.2c1.9-.4 3.9-.6 5.9-.6 6 0 11.7 1.4 16.8 3.9 1 .5 2.1-.2 2.1-1.3V35.7c0-.8-.7-1.3-1.4-.9-.5.2-1.1.4-1.6.5zM50 82.5V36.2" fill="none" stroke="#fef08a" stroke-width="6" stroke-linecap="round" stroke-linejoin="round"/>
</svg>
